<?xml version="1.0" encoding="UTF-8"?>
<!DOCTYPE svg PUBLIC "-//W3C//DTD SVG 1.1//EN" "http://www.w3.org/Graphics/SVG/1.1/DTD/svg11.dtd">
<svg xmlns="http://www.w3.org/2000/svg" version="1.1" width="480px" height="480px" style="shape-rendering:geometricPrecision; text-rendering:geometricPrecision; image-rendering:optimizeQuality; fill-rule:evenodd; clip-rule:evenodd" xmlns:xlink="http://www.w3.org/1999/xlink">
<g><path style="opacity:1" fill="#010101" d="M -0.5,-0.5 C 159.5,-0.5 319.5,-0.5 479.5,-0.5C 479.5,159.5 479.5,319.5 479.5,479.5C 319.5,479.5 159.5,479.5 -0.5,479.5C -0.5,319.5 -0.5,159.5 -0.5,-0.5 Z"/></g>
<g><path style="opacity:1" fill="#fbfbfb" d="M 54.5,32.5 C 70.3571,31.3601 78.6905,38.6934 79.5,54.5C 78.6582,60.1686 78.1582,65.8352 78,71.5C 99.8333,91.3333 121.667,111.167 143.5,131C 137.82,139.193 133.32,148.027 130,157.5C 106.5,136 83,114.5 59.5,93C 58.3914,92.3623 57.2247,91.8623 56,91.5C 46.1785,96.3974 36.3452,96.5641 26.5,92C 19.0527,86.5971 16.5527,79.4305 19,70.5C 24.2527,61.6229 32.086,57.6229 42.5,58.5C 41.1543,47.1996 45.1543,38.533 54.5,32.5 Z"/></g>
<g><path style="opacity:1" fill="#fbfbfb" d="M 413.5,32.5 C 431.014,31.5178 438.847,39.8511 437,57.5C 447.369,57.5082 455.369,61.8416 461,70.5C 463.072,83.1806 457.905,91.3473 445.5,95C 441.5,95.6667 437.5,95.6667 433.5,95C 429.483,93.6623 425.483,92.6623 421.5,92C 397.983,113.685 374.316,135.185 350.5,156.5C 346.482,147.631 341.816,139.131 336.5,131C 358.167,111.167 379.833,91.3333 401.5,71.5C 402.665,68.4648 402.498,65.4648 401,62.5C 399.888,55.2379 400.555,48.2379 403,41.5C 406.103,37.886 409.603,34.886 413.5,32.5 Z"/></g>
<g><path style="opacity:1" fill="#806312" d="M 249.5,84.5 C 240.148,84.4343 230.815,84.7676 221.5,85.5C 226.925,84.0158 232.591,83.3491 238.5,83.5C 242.349,83.5013 246.016,83.8346 249.5,84.5 Z"/></g>
<g><path style="opacity:1" fill="#f8bc02" d="M 249.5,84.5 C 281.072,87.7842 306.739,101.784 326.5,126.5C 327.038,128.117 327.371,129.784 327.5,131.5C 268.331,131.832 209.331,131.499 150.5,130.5C 167.866,105.646 191.532,90.6456 221.5,85.5C 230.815,84.7676 240.148,84.4343 249.5,84.5 Z"/></g>
<g><path style="opacity:1" fill="#c39d21" d="M 326.5,126.5 C 327.833,127.167 328.833,128.167 329.5,129.5C 329.804,130.15 330.137,130.817 330.5,131.5C 270.001,132.832 209.668,132.832 149.5,131.5C 149.5,130.833 149.833,130.5 150.5,130.5C 209.331,131.499 268.331,131.832 327.5,131.5C 327.371,129.784 327.038,128.117 326.5,126.5 Z"/></g>
<g><path style="opacity:1" fill="#311f07" d="M 329.5,129.5 C 331.176,130.183 331.843,131.517 331.5,133.5C 270.496,133.833 209.496,133.5 148.5,132.5C 148.624,131.893 148.957,131.56 149.5,131.5C 209.668,132.832 270.001,132.832 330.5,131.5C 330.137,130.817 329.804,130.15 329.5,129.5 Z"/></g>
<g><path style="opacity:1" fill="#96191f" d="M 334.5,138.5 C 271.499,138.333 208.499,138.5 145.5,139C 144.956,139.717 144.289,140.217 143.5,140.5C 143.414,139.504 143.748,138.671 144.5,138C 208.001,137.168 271.335,137.335 334.5,138.5 Z"/></g>
<g><path style="opacity:1" fill="#e60012" d="M 137.5,156.5 C 138.15,154.565 138.483,152.565 138.5,150.5C 140.245,148.967 141.245,146.967 141.5,144.5C 145.172,144.817 146.838,143.151 146.5,139.5C 209.167,139.5 271.833,139.5 334.5,139.5C 336.588,143.786 338.755,148.12 341,152.5C 341.49,153.793 341.657,155.127 341.5,156.5C 273.5,156.5 205.5,156.5 137.5,156.5 Z"/></g>
<g><path style="opacity:1" fill="#750b12" d="M 141.5,144.5 C 141.245,146.967 140.245,148.967 138.5,150.5C 138.755,148.033 139.755,146.033 141.5,144.5 Z"/></g>
<g><path style="opacity:1" fill="#d10c19" d="M 334.5,138.5 C 338.45,142.729 341.117,147.729 342.5,153.5C 342.5,154.833 342.5,156.167 342.5,157.5C 273.998,157.833 205.665,157.499 137.5,156.5C 205.5,156.5 273.5,156.5 341.5,156.5C 341.657,155.127 341.49,153.793 341,152.5C 338.755,148.12 336.588,143.786 334.5,139.5C 271.833,139.5 209.167,139.5 146.5,139.5C 146.838,143.151 145.172,144.817 141.5,144.5C 141.66,142.847 142.326,141.514 143.5,140.5C 144.289,140.217 144.956,139.717 145.5,139C 208.499,138.5 271.499,138.333 334.5,138.5 Z"/></g>
<g><path style="opacity:1" fill="#940a11" d="M 138.5,150.5 C 138.483,152.565 138.15,154.565 137.5,156.5C 205.665,157.499 273.998,157.833 342.5,157.5C 342.5,156.167 342.5,154.833 342.5,153.5C 343.931,154.78 344.598,156.447 344.5,158.5C 275.167,158.5 205.833,158.5 136.5,158.5C 136.294,155.505 136.96,152.838 138.5,150.5 Z"/></g>
<g><path style="opacity:1" fill="#e6b827" d="M 357.5,164.5 C 278.499,164.333 199.499,164.5 120.5,165C 115.536,165.912 110.536,166.412 105.5,166.5C 109.335,165.539 113.335,164.705 117.5,164C 197.668,163.168 277.668,163.334 357.5,164.5 Z"/></g>
<g><path style="opacity:1" fill="#f8bc02" d="M 357.5,164.5 C 374.318,165.415 389.985,170.082 404.5,178.5C 294.833,179.833 185.167,179.833 75.5,178.5C 84.5259,172.394 94.5259,168.394 105.5,166.5C 110.536,166.412 115.536,165.912 120.5,165C 199.499,164.5 278.499,164.333 357.5,164.5 Z"/></g>
<g><path style="opacity:1" fill="#c6a225" d="M 75.5,178.5 C 185.167,179.833 294.833,179.833 404.5,178.5C 405.289,178.783 405.956,179.283 406.5,180C 295.5,180.667 184.5,180.667 73.5,180C 74.0442,179.283 74.7109,178.783 75.5,178.5 Z"/></g>
<g><path style="opacity:1" fill="#a9a9a9" d="M 349.5,202.5 C 349.5,197.167 349.5,191.833 349.5,186.5C 276.5,186.5 203.5,186.5 130.5,186.5C 130.5,191.833 130.5,197.167 130.5,202.5C 129.511,197.025 129.178,191.358 129.5,185.5C 203.167,185.5 276.833,185.5 350.5,185.5C 350.822,191.358 350.489,197.025 349.5,202.5 Z"/></g>
<g><path style="opacity:1" fill="#fbfbfb" d="M 349.5,202.5 C 342.991,254.185 314.657,287.351 264.5,302C 247.64,305.452 230.974,305.286 214.5,301.5C 212.485,300.076 210.152,299.41 207.5,299.5C 172.448,288.116 148.448,265.116 135.5,230.5C 135.59,227.848 134.924,225.515 133.5,223.5C 131.594,216.635 130.594,209.635 130.5,202.5C 130.5,197.167 130.5,191.833 130.5,186.5C 203.5,186.5 276.5,186.5 349.5,186.5C 349.5,191.833 349.5,197.167 349.5,202.5 Z"/></g>
<g><path style="opacity:1" fill="#808080" d="M 195.5,195.5 C 190.463,195.413 185.463,195.746 180.5,196.5C 183.186,195.009 186.186,194.343 189.5,194.5C 191.696,194.505 193.696,194.838 195.5,195.5 Z"/></g>
<g><path style="opacity:1" fill="#020202" d="M 195.5,195.5 C 214.231,199.229 224.565,210.563 226.5,229.5C 223.174,255.335 208.507,267.169 182.5,265C 162.1,257.722 153.267,243.222 156,221.5C 160.319,209.348 168.486,201.015 180.5,196.5C 185.463,195.746 190.463,195.413 195.5,195.5 Z"/></g>
<g><path style="opacity:1" fill="#030303" d="M 279.5,195.5 C 296.672,192.716 310.172,198.383 320,212.5C 328.229,229.746 325.396,244.913 311.5,258C 293.713,269.305 277.213,267.805 262,253.5C 249.162,234.718 250.995,217.552 267.5,202C 271.434,199.536 275.434,197.369 279.5,195.5 Z"/></g>
<g><path style="opacity:1" fill="#555555" d="M 133.5,223.5 C 134.924,225.515 135.59,227.848 135.5,230.5C 134.076,228.485 133.41,226.152 133.5,223.5 Z"/></g>
<g><path style="opacity:1" fill="#070707" d="M 234.5,258.5 C 244.062,257.031 250.895,260.698 255,269.5C 255.627,284.532 248.461,290.699 233.5,288C 221.202,277.631 221.535,267.798 234.5,258.5 Z"/></g>
<g><path style="opacity:1" fill="#fbfbfb" d="M 166.5,285.5 C 170.774,286.601 174.441,288.767 177.5,292C 174.753,301.314 172.92,310.814 172,320.5C 140.667,349.167 109.333,377.833 78,406.5C 79.2774,413.737 79.6108,421.07 79,428.5C 74.6223,442.77 65.4556,447.603 51.5,443C 44.1625,436.481 41.1625,428.314 42.5,418.5C 25.3007,419.469 17.4674,411.469 19,394.5C 23.08,386.543 29.58,382.21 38.5,381.5C 45.2517,382.694 51.9184,383.861 58.5,385C 94.9965,352.335 130.997,319.169 166.5,285.5 Z"/></g>
<g><path style="opacity:1" fill="#fbfbfb" d="M 309.5,285.5 C 311.308,285.491 312.975,285.991 314.5,287C 350.08,320.585 386.247,353.418 423,385.5C 435.652,379.124 447.319,380.457 458,389.5C 463.862,399.418 462.362,407.918 453.5,415C 448.245,417.507 442.745,419.007 437,419.5C 438.261,428.344 435.761,435.844 429.5,442C 415.648,448.151 406.148,443.984 401,429.5C 400.363,421.736 400.697,414.069 402,406.5C 370.333,377.5 338.667,348.5 307,319.5C 306.057,310.896 304.557,302.396 302.5,294C 302.833,292.833 303.167,291.667 303.5,290.5C 305.571,288.815 307.571,287.148 309.5,285.5 Z"/></g>
<g><path style="opacity:1" fill="#f2f2f2" d="M 181.5,294.5 C 188.155,297.494 194.822,300.494 201.5,303.5C 202.495,309.128 202.829,314.794 202.5,320.5C 194.487,318.911 186.82,316.244 179.5,312.5C 179.167,311.667 178.833,310.833 178.5,310C 179.584,304.834 180.584,299.668 181.5,294.5 Z"/></g>
<g><path style="opacity:1" fill="#f3f3f3" d="M 295.5,294.5 C 296.497,294.47 297.164,294.97 297.5,296C 299.556,301.414 300.222,306.914 299.5,312.5C 292.279,315.472 284.945,318.139 277.5,320.5C 276.337,314.863 276.17,309.196 277,303.5C 283.713,301.335 289.879,298.335 295.5,294.5 Z"/></g>
<g><path style="opacity:1" fill="#9c9c9c" d="M 207.5,299.5 C 210.152,299.41 212.485,300.076 214.5,301.5C 211.848,301.59 209.515,300.924 207.5,299.5 Z"/></g>
<g><path style="opacity:1" fill="#fafafa" d="M 208.5,305.5 C 216.309,307.913 224.309,309.246 232.5,309.5C 233.568,310.434 234.901,310.768 236.5,310.5C 236.5,315.5 236.5,320.5 236.5,325.5C 232.833,325.5 229.167,325.5 225.5,325.5C 220.076,324.93 214.743,323.93 209.5,322.5C 208.548,316.925 208.214,311.259 208.5,305.5 Z"/></g>
<g><path style="opacity:1" fill="#f4f4f4" d="M 266.5,305.5 C 268.167,305.5 269.833,305.5 271.5,305.5C 271.5,311.167 271.5,316.833 271.5,322.5C 261.965,324.7 252.298,325.7 242.5,325.5C 242.5,320.167 242.5,314.833 242.5,309.5C 250.847,309.462 258.847,308.129 266.5,305.5 Z"/></g>
<g><path style="opacity:1" fill="#9e9e9e" d="M 232.5,309.5 C 234.167,309.5 235.833,309.5 237.5,309.5C 237.5,315.167 237.5,320.833 237.5,326.5C 233.298,326.817 229.298,326.483 225.5,325.5C 229.167,325.5 232.833,325.5 236.5,325.5C 236.5,320.5 236.5,315.5 236.5,310.5C 234.901,310.768 233.568,310.434 232.5,309.5 Z"/></g>
<g><path style="opacity:1" fill="#a2a2a2" d="M 208.5,305.5 C 208.214,311.259 208.548,316.925 209.5,322.5C 208.186,320.085 207.519,317.252 207.5,314C 207.502,310.979 207.836,308.146 208.5,305.5 Z"/></g>
<g><path style="opacity:1" fill="#f8f8f8" d="M 201.5,338.5 C 200.539,340.265 200.205,342.265 200.5,344.5C 199.167,344.5 197.833,344.5 196.5,344.5C 190.391,342.135 184.391,339.469 178.5,336.5C 177.167,330.167 177.167,323.833 178.5,317.5C 185.769,321.367 193.435,324.034 201.5,325.5C 201.5,329.833 201.5,334.167 201.5,338.5 Z"/></g>
<g><path style="opacity:1" fill="#f4f4f4" d="M 299.5,317.5 C 301.164,318.949 301.998,320.949 302,323.5C 302.667,327.5 302.667,331.5 302,335.5C 294.439,339.532 286.606,342.865 278.5,345.5C 277.788,338.857 277.454,332.191 277.5,325.5C 285.279,323.798 292.613,321.132 299.5,317.5 Z"/></g>
<g><path style="opacity:1" fill="#f9f9f9" d="M 226.5,330.5 C 229.625,331.479 232.958,331.813 236.5,331.5C 236.5,337.833 236.5,344.167 236.5,350.5C 232.833,350.5 229.167,350.5 225.5,350.5C 219.074,350.909 212.907,349.909 207,347.5C 206.5,340.842 206.334,334.175 206.5,327.5C 213.017,329.462 219.684,330.462 226.5,330.5 Z"/></g>
<g><path style="opacity:1" fill="#f8f8f8" d="M 252.5,350.5 C 249.5,350.5 246.5,350.5 243.5,350.5C 243.5,344.167 243.5,337.833 243.5,331.5C 246.059,331.802 248.393,331.468 250.5,330.5C 257.926,330.058 265.26,329.058 272.5,327.5C 272.953,334.216 272.953,340.882 272.5,347.5C 265.954,349.276 259.287,350.276 252.5,350.5 Z"/></g>
<g><path style="opacity:1" fill="#a2a2a2" d="M 226.5,330.5 C 230.167,330.5 233.833,330.5 237.5,330.5C 237.5,337.5 237.5,344.5 237.5,351.5C 233.298,351.817 229.298,351.483 225.5,350.5C 229.167,350.5 232.833,350.5 236.5,350.5C 236.5,344.167 236.5,337.833 236.5,331.5C 232.958,331.813 229.625,331.479 226.5,330.5 Z"/></g>
<g><path style="opacity:1" fill="#b1b1b1" d="M 250.5,330.5 C 248.393,331.468 246.059,331.802 243.5,331.5C 243.5,337.833 243.5,344.167 243.5,350.5C 246.5,350.5 249.5,350.5 252.5,350.5C 249.375,351.479 246.042,351.813 242.5,351.5C 242.5,344.5 242.5,337.5 242.5,330.5C 245.167,330.5 247.833,330.5 250.5,330.5 Z"/></g>
<g><path style="opacity:1" fill="#fafafa" d="M 177.5,342.5 C 218.391,361.107 259.391,361.107 300.5,342.5C 302.072,365.837 291.739,381.337 269.5,389C 249.192,394.972 228.859,394.972 208.5,389C 187.329,380.847 176.995,365.347 177.5,342.5 Z"/></g>
<g><path style="opacity:1" fill="#909090" d="M 201.5,338.5 C 201.5,340.833 201.5,343.167 201.5,345.5C 199.585,345.784 197.919,345.451 196.5,344.5C 197.833,344.5 199.167,344.5 200.5,344.5C 200.205,342.265 200.539,340.265 201.5,338.5 Z"/></g>
</svg>
